<?xml version="1.0" encoding="UTF-8"?>
<svg id="_レイヤー_1" data-name="レイヤー 1" xmlns="http://www.w3.org/2000/svg" version="1.1" viewBox="0 0 758.63 97.94">
  <defs>
    <style>
      .cls-1 {
        fill: #fff;
        stroke-width: 0px;
      }
    </style>
  </defs>
  <g>
    <path class="cls-1" d="M186.95,28.48c-2.23,0-3.73-1.04-3.35-2.38.45-1.35,2.61-2.46,4.85-2.46s3.73,1.11,3.28,2.46c-.37,1.34-2.54,2.38-4.77,2.38ZM177.19,28.48c-2.24,0-3.72-1.04-3.28-2.38.37-1.35,2.53-2.46,4.77-2.46s3.73,1.11,3.36,2.46c-.45,1.34-2.61,2.38-4.85,2.38ZM186.43,30.12c.3,0,.6,0,.82-.07.37.89.3,2.01-.37,3.2l-18.63,35.85c-1.34,2.6-4.62,4.77-7.31,4.77h-9.76c-2.68,0-3.73-2.17-2.38-4.77l15.27-29.36c1.34-2.61.3-4.77-2.39-4.77h-14.83c-2.68,0-6.11,2.08-7.6,4.69l-7.9,13.35c-1.49,2.54-4.92,4.69-7.61,4.69h-6.48c-2.68,0-3.65-2.15-2.09-4.69l11.7-19.83c1.49-2.54,4.92-4.7,7.6-4.7h38.23c.75.97,2.16,1.64,4.03,1.64h9.68Z"/>
    <path class="cls-1" d="M218.39,69.1l18.63-35.85c1.34-2.61,4.69-4.77,7.31-4.77h9.76c2.68,0,3.73,2.16,2.39,4.77l-18.63,35.85c-1.42,2.6-4.7,4.77-7.39,4.77h-9.69c-2.68,0-3.72-2.17-2.38-4.77ZM185.52,56.06l6.93-22.66c.82-2.68,3.66-4.92,6.34-4.92h6.48c2.68,0,4.25,2.24,3.43,4.92l-6.93,22.66c-.82,2.68-3.73,4.85-6.41,4.85h-6.49c-2.6,0-4.17-2.17-3.35-4.85Z"/>
    <path class="cls-1" d="M253.91,54.5l.45-1.64c.81-2.67,3.73-4.84,6.33-4.84h42.18c2.61,0,4.18,2.16,3.36,4.84l-.53,1.64c-.82,2.68-3.66,4.85-6.33,4.85h-42.1c-2.69,0-4.18-2.16-3.35-4.85Z"/>
    <path class="cls-1" d="M331.84,32.59c-.67,2.23-3.42,4.02-6.11,4.02h-19.45c-2.68,0-4.32-1.79-3.65-4.02.75-2.24,3.43-4.1,6.11-4.1h19.45c2.68,0,4.32,1.86,3.66,4.1ZM310.6,70.29l38.76-31.74c2.45-1.94,6.63-3.58,9.24-3.58h12.96c2.68,0,2.91,1.64.53,3.58l-38.83,31.74c-2.39,1.95-6.56,3.58-9.17,3.58h-12.96c-2.68,0-2.9-1.64-.52-3.58Z"/>
    <path class="cls-1" d="M441.73,28.56c-.51,1.79.83,3.21,3.07,3.21s3.57,1.49,3.05,3.28c-.53,1.79-2.83,3.2-5.07,3.2s-4.69,2.24-5.52,4.92l-7.9,25.93c-.82,2.6-3.66,4.84-6.33,4.84h-9.77c-2.68,0-4.17-2.24-3.35-4.84l7.61-24.89c.81-2.68-.37-3.13-2.61-.97l-28.32,26.83c-2.24,2.09-6.26,3.87-8.95,3.87h-4.84c-2.69,0-3.05-1.79-.74-3.87l29.35-27.87c2.32-2.16,1.94-3.95-.74-3.95h-16.99c-2.68,0-4.4-1.41-3.87-3.2.52-1.79,3.19-3.28,5.88-3.28h30.78c2.69,0,5.28-1.42,5.81-3.21.52-1.78,3.2-3.2,5.89-3.2h9.69c2.68,0,4.39,1.42,3.87,3.2Z"/>
    <path class="cls-1" d="M444.77,54.5l.45-1.64c.82-2.67,3.73-4.84,6.34-4.84h42.17c2.6,0,4.18,2.16,3.36,4.84l-.53,1.64c-.81,2.68-3.65,4.85-6.34,4.85h-42.11c-2.68,0-4.17-2.16-3.35-4.85Z"/>
    <path class="cls-1" d="M564.38,44.73c2.61,0,4.17,2.16,3.35,4.85-.82,2.68-3.66,4.85-6.34,4.85h-32.42c-2.67,0-5.51,2.16-6.34,4.85l-2.98,9.76c-.82,2.68-3.65,4.85-6.33,4.85h-9.77c-2.69,0-4.17-2.17-3.35-4.85l10.88-35.69c.83-2.61,3.66-4.85,6.34-4.85h9.76c2.69,0,4.18,2.24,3.35,4.85l-2.01,6.48c-.82,2.69.74,4.92,3.43,4.92h32.41Z"/>
    <path class="cls-1" d="M605.07,69.1l18.63-35.85c1.35-2.61,4.7-4.77,7.31-4.77h9.76c2.69,0,3.73,2.16,2.39,4.77l-18.64,35.85c-1.4,2.6-4.69,4.77-7.37,4.77h-9.69c-2.68,0-3.73-2.17-2.39-4.77ZM572.21,56.06l6.93-22.66c.82-2.68,3.66-4.92,6.33-4.92h6.48c2.69,0,4.25,2.24,3.43,4.92l-6.93,22.66c-.83,2.68-3.74,4.85-6.41,4.85h-6.48c-2.6,0-4.18-2.17-3.35-4.85Z"/>
    <path class="cls-1" d="M640.19,54.5l.45-1.64c.81-2.67,3.71-4.84,6.34-4.84h42.17c2.62,0,4.17,2.16,3.37,4.84l-.53,1.64c-.82,2.68-3.66,4.85-6.33,4.85h-42.11c-2.69,0-4.18-2.16-3.35-4.85Z"/>
    <path class="cls-1" d="M756.98,32.06l-19.23,15.58c-2.38,1.93-3.35,5.06-2.02,7.01l10.97,15.8c1.34,1.86.22,3.43-2.46,3.43h-6.48c-2.69,0-5.96-1.57-7.23-3.43l-5.14-7.38c-1.34-1.94-4.39-1.87-6.78.07l-8.87,7.15c-2.39,1.95-6.56,3.58-9.24,3.58h-12.97c-2.69,0-2.83-1.64-.46-3.58l39.21-31.74c2.38-1.94,2.23-3.58-.45-3.58h-24.82c-2.6,0-4.39-1.42-3.8-3.2.53-1.79,3.14-3.28,5.82-3.28h53.42c2.69,0,2.91,1.64.53,3.58Z"/>
  </g>
  <g>
    <polygon class="cls-1" points="9.69 59.69 7.74 60.72 9.94 60.59 11.88 60.58 11.37 58.7 9.69 59.69"/>
    <path class="cls-1" d="M10.34,38.47c2.62.8,3.3.27,3.59-.67.29-.95,0-1.77-2.6-2.57-2.61-.8-3.3-.28-3.59.67-.29.94-.01,1.77,2.6,2.57Z"/>
    <polygon class="cls-1" points="25.67 17.13 24.06 16.03 22.31 14.69 23.35 16.64 24.18 18.39 25.67 17.13"/>
    <path class="cls-1" d="M27.59,85.73c-.39.62-.59,1.38.23,1.88l1.22.76,1.58-2.52-1.22-.76c-.86-.54-1.45.05-1.81.64Z"/>
    <path class="cls-1" d="M48.97,0C21.92,0,0,21.93,0,48.97s21.92,48.96,48.97,48.96,48.96-21.92,48.96-48.96S76.01,0,48.97,0ZM37.84,4.62l.28.66-3.11,1.28,1.04,2.52,2.9-1.19.27.67-2.9,1.19,1.08,2.61,3.2-1.32.28.67-4.89,2.02-2.94-7.14,4.79-1.97ZM26.89,10.45c.24-.56,1.06-1.23,1.73-1.64.75-.44,1.59-.66,2.12-.62.95.07,1.31.5,1.74,1.09l-1.62.96c-.46-.75-1.01-1.27-2.06-.66-.63.38-.8.82-.49,1.35.31.53.72.51,1.76.38.67-.08.75-.1,1.55-.19,1.29-.15,2.16.12,2.71,1.05.12.19.24.46.29.77.07.43,0,.79-.13,1.09-.22.5-.95,1.19-1.85,1.73-.71.43-1.56.67-2.16.61-1.09-.09-1.53-.63-1.99-1.27l1.61-.95c.62.99,1.16,1.54,2.26.89.29-.18,1.03-.7.56-1.48-.37-.63-1.12-.58-2.14-.44-1.88.28-3.03.38-3.76-.85-.25-.41-.48-1.06-.13-1.81ZM22.7,13.07l6.78,4.37-1.52,1.28-1.68-1.16-1.78,1.51.87,1.85-1.51,1.28-3.21-7.4,2.05-1.74ZM17.82,17.49l.54.47-2.18,2.56,2.08,1.76,2.03-2.38.55.47-2.03,2.39,2.15,1.83,2.24-2.64.55.46-3.43,4.03-5.88-5,3.37-3.95ZM11.63,25.71l5.94,3.69,1.86-2.98.62.38-2.83,4.53-6.55-4.08.97-1.55ZM7.01,35.67c.67-2.18,2.55-3,4.89-2.29,2.27.7,3.45,2.41,2.76,4.64-.68,2.21-2.59,2.98-4.88,2.28-2.32-.71-3.44-2.45-2.77-4.63ZM5.81,40.78l.72.08-.24,2.15,6.95.78-.2,1.82-6.95-.78-.24,2.14-.72-.07.69-6.12ZM5.39,53.69l5.19-.35c1.06-.08,1.89-.56,1.81-1.73-.07-1.18-1.01-1.51-2.02-1.45l-5.19.35-.13-1.81,4.45-.3c1.26-.09,1.91.25,2.48.64.82.56,1.1,1.82,1.15,2.56.14,2.07-.9,3.46-3.17,3.62l-4.45.3-.12-1.82ZM6.43,59.68l6.82-4.31.52,1.92-1.76,1.03.62,2.25h2.05s.53,1.91.53,1.91l-8.06-.21-.72-2.59ZM13.64,75.51l-1.11-1.81,4-5.85-5.5,3.38-.96-1.56,6.57-4.04,1.12,1.83-4.01,5.84,5.52-3.39.95,1.55-6.58,4.04ZM14.81,76.98l.54-.47,2.22,2.53,2.05-1.8-2.07-2.35.55-.48,2.07,2.35,2.12-1.86-2.29-2.6.54-.48,3.49,3.98-5.79,5.09-3.42-3.9ZM19.45,82.09l.47-.55,2.56,2.19,1.77-2.07-2.37-2.04.46-.55,2.38,2.04,1.83-2.15-2.63-2.26.47-.55,4.01,3.45-5.02,5.85-3.94-3.37ZM26.76,87.8c-1.19-.75-1.64-1.78-.86-3.03.3-.47.59-.67.77-.77.61-.34,1.1-.24,1.74-.01-.42-.39-.86-.81-.62-1.82.11-.55.53-1.34.83-1.81l.21-.35,1.62,1.02-.68,1.08c-.69,1.1-.73,1.9.06,2.4l1.17.74,1.75-2.79,1.54.97-4.09,6.53-3.44-2.16ZM39.94,90.01c-1.06,2.54-3.01,3.11-5.01,2.27-.7-.3-1.71-.89-2.09-2.07-.18-.58-.09-1.03.03-1.56l1.73.72c-.46.87-.18,1.85.72,2.23.18.07.4.13.65.12.19,0,.48-.05.83-.3.51-.38,1.16-1.71,1.4-2.29.38-.92.54-1.87.49-2.28-.06-.38-.21-.97-.95-1.28-.25-.1-.63-.2-1.06-.09-.39.1-.56.28-.71.43l-.69,1.64,1.36.57-.28.67-3.09-1.29.93-2.22c.57-.43,1.69-1.28,3.77-.4,2.3.96,2.93,2.82,1.97,5.14ZM57.44,87.93c-21.51,0-38.96-17.44-38.96-38.96S35.93,10,57.44,10c19.18,0,35.11,13.87,38.35,32.12h-16.14v-19.73h-7.98v19.73h-1.48v-9.41c0-3.73-.88-6.46-2.64-8.2-1.76-1.73-4.58-2.6-8.46-2.6-3.61,0-6.37.93-8.26,2.77-1.89,1.85-2.84,4.53-2.84,8.02v9.41h-12.08v5.24h3.58v18.62c0,1.43-.27,2.59-.8,3.47-.54.89-1.29,1.33-2.28,1.33-1.35,0-2.27-.99-2.77-2.99-.5-1.99-.75-12.79-.75-18.91,0-5.66.19-16.28.57-18.37.38-2.08,1.23-3.13,2.56-3.13.79,0,1.36.31,1.71.94.35.63.53,2.08.53,4.36h7.62c0-3.49-.84-6.17-2.51-8.01-1.67-1.85-4.1-2.77-7.3-2.77-4.04,0-6.94,1.6-8.72,4.79-1.78,3.19-2.67,15.1-2.67,22.21s.89,19.41,2.67,22.49c1.79,3.07,4.78,4.61,8.98,4.61,2.98,0,5.28-.69,6.9-2.07,1.62-1.39,2.76-3.65,3.42-6.79v-19.8h1.36v28h7.98v-28h6.25v28h7.98v-28h1.48v18.51c0,3.04.8,5.38,2.42,7.03,1.62,1.64,3.95,2.46,7,2.46h5c-7.12,7.73-17.31,12.56-28.65,12.56ZM62.21,31.11v11.02h-6.25v-11.02c0-1.66.22-2.82.67-3.49.45-.66,1.29-1,2.5-1,1.11,0,1.9.34,2.37,1.02.46.68.7,1.83.7,3.46ZM84.08,69.61c-1.41,0-2.49-.35-3.27-1.05-.78-.7-1.17-2.13-1.17-4.28v-16.91h16.71c.02.53.04,1.07.04,1.61,0,7.58-2.17,14.65-5.92,20.64h-6.4Z"/>
  </g>
</svg>